<?xml version="1.0" encoding="UTF-8"?>
<svg width="283px" height="28px" viewBox="0 0 283 28" version="1.1" xmlns="http://www.w3.org/2000/svg" xmlns:xlink="http://www.w3.org/1999/xlink">
    <!-- Generator: Sketch 49 (51002) - http://www.bohemiancoding.com/sketch -->
    <title>JoozeCalculator</title>
    <desc>Created with Sketch.</desc>
    <defs>
        <linearGradient x1="46.2144478%" y1="-32.6119245%" x2="47.7160801%" y2="73.0178938%" id="linearGradient-1">
            <stop stop-color="#6BB6C4" offset="0%"></stop>
            <stop stop-color="#7C99C6" offset="100%"></stop>
        </linearGradient>
    </defs>
    <g id="Page-1" stroke="none" stroke-width="1" fill="none" fill-rule="evenodd">
        <path d="M9.84375,19.6875 L9.84375,0.5625 L14.625,0.5625 L14.625,20.8125 C14.625,22.9101667 14.0771539,24.5244084 12.9814453,25.6552734 C11.8857367,26.7861385 10.2773544,27.4218743 8.15625,27.5625 C8.02734311,27.5742188 7.83398566,27.5800781 7.57617188,27.5800781 C6.61522957,27.5800781 5.70410587,27.4189469 4.84277344,27.0966797 C3.98144101,26.7744125 3.20801124,26.3085968 2.52246094,25.6992188 C1.83691063,25.0898407 1.28027558,24.3691448 0.852539062,23.5371094 C0.424802549,22.705074 0.140625703,21.7968799 0,20.8125 L5.0625,20.8125 C5.13281285,21.5039097 5.39062277,22.0605448 5.8359375,22.4824219 C6.28125223,22.904299 6.79101275,23.1152344 7.36523438,23.1152344 C8.03320646,23.1152344 8.61327879,22.8193389 9.10546875,22.2275391 C9.59765871,21.6357392 9.84375,20.789068 9.84375,19.6875 Z M21.09375,10.125 C23.4961058,7.83983232 26.1035016,6.69726562 28.9160156,6.69726562 C29.8066451,6.69726562 30.656246,6.80859264 31.4648438,7.03125 C32.2734415,7.25390736 33.023434,7.5527325 33.7148438,7.92773438 C34.4062535,8.30273625 35.0742155,8.77441122 35.71875,9.34277344 C36.3632845,9.91113565 36.9257788,10.5468715 37.40625,11.25 C38.7187566,13.0312589 39.375,14.9941299 39.375,17.1386719 C39.375,18.3691468 39.1582053,19.5878846 38.7246094,20.7949219 C38.2910135,22.0019592 37.6640666,23.1328072 36.84375,24.1875 C36.3398412,24.8554721 35.6953164,25.4267554 34.9101562,25.9013672 C34.1249961,26.3759789 33.2490283,26.7304676 32.2822266,26.9648438 C31.3154249,27.1992199 30.3339894,27.3164062 29.3378906,27.3164062 C28.2831979,27.3164062 27.2402395,27.1904309 26.2089844,26.9384766 C25.1777292,26.6865222 24.2168013,26.2998073 23.3261719,25.7783203 C22.4355424,25.2568333 21.6914092,24.6328161 21.09375,23.90625 C19.3007723,21.7148328 18.4042969,19.3769655 18.4042969,16.8925781 C18.4042969,14.51366 19.3007723,12.2578232 21.09375,10.125 Z M24.75,13.21875 C23.7656201,14.3789121 23.2734375,15.7206955 23.2734375,17.2441406 C23.2734375,18.6972729 23.7656201,19.9804632 24.75,21.09375 C25.8867244,22.4531318 27.2695231,23.1328125 28.8984375,23.1328125 C29.7656293,23.1328125 30.6005819,22.9306661 31.4033203,22.5263672 C32.2060587,22.1220683 32.8007793,21.644534 33.1875,21.09375 C34.0312542,19.9687444 34.453125,18.6679761 34.453125,17.1914062 C34.453125,16.4882777 34.3447276,15.817386 34.1279297,15.1787109 C33.9111317,14.5400359 33.5976583,13.9804712 33.1875,13.5 C31.9687439,12.1406182 30.4746182,11.4609375 28.7050781,11.4609375 C27.0996013,11.4609375 25.7812552,12.0468691 24.75,13.21875 Z M43.875,10.125 C46.2773558,7.83983232 48.8847516,6.69726562 51.6972656,6.69726562 C52.5878951,6.69726562 53.437496,6.80859264 54.2460938,7.03125 C55.0546915,7.25390736 55.804684,7.5527325 56.4960938,7.92773438 C57.1875035,8.30273625 57.8554655,8.77441122 58.5,9.34277344 C59.1445345,9.91113565 59.7070288,10.5468715 60.1875,11.25 C61.5000066,13.0312589 62.15625,14.9941299 62.15625,17.1386719 C62.15625,18.3691468 61.9394553,19.5878846 61.5058594,20.7949219 C61.0722635,22.0019592 60.4453166,23.1328072 59.625,24.1875 C59.1210912,24.8554721 58.4765664,25.4267554 57.6914062,25.9013672 C56.9062461,26.3759789 56.0302783,26.7304676 55.0634766,26.9648438 C54.0966749,27.1992199 53.1152394,27.3164062 52.1191406,27.3164062 C51.0644479,27.3164062 50.0214895,27.1904309 48.9902344,26.9384766 C47.9589792,26.6865222 46.9980513,26.2998073 46.1074219,25.7783203 C45.2167924,25.2568333 44.4726592,24.6328161 43.875,23.90625 C42.0820223,21.7148328 41.1855469,19.3769655 41.1855469,16.8925781 C41.1855469,14.51366 42.0820223,12.2578232 43.875,10.125 Z M47.53125,13.21875 C46.5468701,14.3789121 46.0546875,15.7206955 46.0546875,17.2441406 C46.0546875,18.6972729 46.5468701,19.9804632 47.53125,21.09375 C48.6679744,22.4531318 50.0507731,23.1328125 51.6796875,23.1328125 C52.5468793,23.1328125 53.3818319,22.9306661 54.1845703,22.5263672 C54.9873087,22.1220683 55.5820293,21.644534 55.96875,21.09375 C56.8125042,19.9687444 57.234375,18.6679761 57.234375,17.1914062 C57.234375,16.4882777 57.1259776,15.817386 56.9091797,15.1787109 C56.6923817,14.5400359 56.3789083,13.9804712 55.96875,13.5 C54.7499939,12.1406182 53.2558682,11.4609375 51.4863281,11.4609375 C49.8808513,11.4609375 48.5625052,12.0468691 47.53125,13.21875 Z M72.28125,11.25 L64.40625,11.25 L64.40625,7.03125 L77.90625,7.03125 L77.90625,11.53125 L69.1875,22.78125 L78.46875,22.78125 L78.46875,27 L63.28125,27 L63.28125,22.78125 L72.28125,11.25 Z M80.15625,16.875 C80.15625,15.3984301 80.49902,13.8779375 81.1845703,12.3134766 C81.8701206,10.7490156 82.998039,9.43066942 84.5683594,8.35839844 C86.1386797,7.28612745 88.1367066,6.75 90.5625,6.75 C92.5429787,6.75 94.3124922,7.16601146 95.8710938,7.99804688 C97.4296953,8.83008229 98.6396441,10.0576091 99.5009766,11.6806641 C100.362309,13.3037191 100.792969,15.2402231 100.792969,17.4902344 C100.792969,18.0996124 100.757813,18.7382779 100.6875,19.40625 L85.5,19.40625 C85.9218771,20.4843804 86.6308544,21.3339813 87.6269531,21.9550781 C88.6230519,22.576175 89.7128847,22.8867188 90.8964844,22.8867188 C92.5839928,22.8867188 93.9726508,22.2890685 95.0625,21.09375 L100.125,21.09375 C99.7617169,22.3007873 99.152348,23.4023388 98.296875,24.3984375 C97.441402,25.3945362 96.3896547,26.1972626 95.1416016,26.8066406 C93.8935484,27.4160187 92.5546946,27.7617183 91.125,27.84375 C91.0312495,27.84375 90.9521488,27.8466797 90.8876953,27.8525391 C90.8232419,27.8583985 90.7558597,27.8613281 90.6855469,27.8613281 C89.267571,27.8613281 87.9111393,27.5742216 86.6162109,27 C85.3212826,26.4257784 84.1845752,25.6464893 83.2060547,24.6621094 C82.2275342,23.6777295 81.4687527,22.576178 80.9296875,21.3574219 C80.3906223,20.1386658 80.1210938,18.9140687 80.1210938,17.6835938 C80.1210938,17.3203107 80.1328124,17.0507821 80.15625,16.875 Z M90.84375,11.53125 C89.7773384,11.53125 88.8339885,11.7099592 88.0136719,12.0673828 C87.1933553,12.4248065 86.5283229,12.8759738 86.0185547,13.4208984 C85.5087865,13.965823 85.1484386,14.5546843 84.9375,15.1875 L95.90625,15.1875 C95.5898422,14.2382765 95.0361368,13.3886756 94.2451172,12.6386719 C93.4540976,11.8886681 92.4785214,11.5136719 91.3183594,11.5136719 C91.1074208,11.5136719 90.9492193,11.5195312 90.84375,11.53125 Z M102.65625,13.21875 C102.726563,12.1054632 103.069333,10.8076246 103.68457,9.32519531 C104.299808,7.84276603 105.172846,6.41016316 106.303711,5.02734375 C107.434576,3.64452434 108.823234,2.50781695 110.469727,1.6171875 C112.116219,0.726558047 113.970693,0.28125 116.033203,0.28125 L116.4375,0.28125 C117.996102,0.28125 119.627921,0.615231035 121.333008,1.28320312 C123.038094,1.95117521 124.576165,2.90917345 125.947266,4.15722656 C127.318366,5.40527968 128.273435,6.83202322 128.8125,8.4375 L123.1875,8.4375 C122.156245,7.31249438 121.069342,6.48047145 119.926758,5.94140625 C118.784174,5.40234105 117.61524,5.1328125 116.419922,5.1328125 C114.919914,5.1328125 113.493171,5.54589431 112.139648,6.37207031 C110.786126,7.19824632 109.710941,8.2792902 108.914062,9.61523438 C108.117184,10.9511786 107.71875,12.3398365 107.71875,13.78125 C107.71875,15.4218832 108.193355,16.9365165 109.142578,18.3251953 C110.091802,19.7138741 111.30761,20.8066366 112.790039,21.6035156 C114.272468,22.4003946 115.763664,22.7988281 117.263672,22.7988281 C118.376959,22.7988281 119.39355,22.5703148 120.313477,22.1132812 C121.233403,21.6562477 122.003903,20.9414111 122.625,19.96875 L128.53125,19.96875 C127.886716,21.7265713 126.858405,23.1826114 125.446289,24.3369141 C124.034173,25.4912167 122.499032,26.3232396 120.84082,26.8330078 C119.182609,27.342776 117.679694,27.5976562 116.332031,27.5976562 C116.14453,27.5976562 115.898439,27.5859376 115.59375,27.5625 C113.82421,27.4218743 112.148445,26.9941442 110.566406,26.2792969 C108.984367,25.5644496 107.610357,24.6064513 106.444336,23.4052734 C105.278314,22.2040956 104.355472,20.7363368 103.675781,19.0019531 C102.99609,17.2675695 102.65625,15.3398544 102.65625,13.21875 Z M130.78125,16.875 C130.898438,15.0937411 131.247067,13.5351629 131.827148,12.1992188 C132.407229,10.8632746 133.136714,9.78223069 134.015625,8.95605469 C134.894536,8.12987868 135.864253,7.52050978 136.924805,7.12792969 C137.985357,6.7353496 139.083979,6.5390625 140.220703,6.5390625 C141.720711,6.5390625 143.132806,6.8613249 144.457031,7.50585938 C145.781257,8.15039385 146.753903,9.02343199 147.375,10.125 L147.375,7.03125 L151.875,7.03125 L151.875,27.28125 L147.375,27.28125 L147.375,24.75 C146.695309,25.7109423 145.728522,26.4667941 144.474609,27.0175781 C143.220697,27.5683621 141.937507,27.84375 140.625,27.84375 C139.171868,27.84375 137.838873,27.5654325 136.625977,27.0087891 C135.41308,26.4521457 134.373051,25.6816455 133.505859,24.6972656 C132.638668,23.7128857 131.967776,22.5468817 131.493164,21.1992188 C131.018552,19.8515558 130.78125,18.4101639 130.78125,16.875 Z M141.46875,23.0625 C143.613292,22.9335931 145.133785,22.3681691 146.030273,21.3662109 C146.926762,20.3642528 147.375,18.9609465 147.375,17.15625 C147.375,15.9960879 147.102542,14.9619186 146.557617,14.0537109 C146.012693,13.1455033 145.289067,12.4511743 144.386719,11.9707031 C143.48437,11.490232 142.511724,11.25 141.46875,11.25 C140.425776,11.25 139.45313,11.490232 138.550781,11.9707031 C137.648433,12.4511743 136.924807,13.1455033 136.379883,14.0537109 C135.834958,14.9619186 135.5625,15.9960879 135.5625,17.15625 C135.5625,18.3984437 135.846677,19.4648393 136.415039,20.3554688 C136.983401,21.2460982 137.721675,21.9199196 138.629883,22.3769531 C139.53809,22.8339867 140.48437,23.0625 141.46875,23.0625 Z M155.25,0.5625 L159.75,0.5625 L159.75,27 L155.25,27 L155.25,0.5625 Z M173.53125,6.46875 C175.265634,6.46875 176.827141,6.8613242 178.21582,7.64648438 C179.604499,8.43164455 180.732418,9.41015039 181.599609,10.5820312 C182.466801,11.7539121 183.058592,12.9140568 183.375,14.0625 L178.03125,14.0625 C177.609373,12.1874906 176.015639,11.25 173.25,11.25 C172.101557,11.25 171.102543,11.5751921 170.25293,12.2255859 C169.403316,12.8759798 168.752932,13.6816358 168.301758,14.6425781 C167.850584,15.6035204 167.625,16.5351517 167.625,17.4375 C167.707032,18.9843827 168.351556,20.2558544 169.558594,21.2519531 C170.765631,22.2480519 172.119133,22.7460938 173.619141,22.7460938 C175.470712,22.7460938 176.941401,22.0078199 178.03125,20.53125 L183.375,20.53125 C182.601559,22.6875108 181.441414,24.3984312 179.894531,25.6640625 C178.347649,26.9296938 176.320325,27.5625 173.8125,27.5625 C173.707031,27.5625 173.622071,27.5654297 173.557617,27.5712891 C173.493164,27.5771485 173.419922,27.5800781 173.337891,27.5800781 C171.76757,27.5800781 170.337897,27.281253 169.048828,26.6835938 C167.759759,26.0859345 166.658208,25.2744192 165.744141,24.2490234 C164.830074,23.2236277 164.135745,22.1396542 163.661133,20.9970703 C163.186521,19.8544865 162.914063,18.761724 162.84375,17.71875 C162.84375,17.6132807 162.84082,17.525391 162.834961,17.4550781 C162.829102,17.3847653 162.826172,17.3085942 162.826172,17.2265625 C162.826172,15.6913986 163.124997,14.2529364 163.722656,12.9111328 C164.320315,11.5693292 165.14062,10.4150439 166.183594,9.44824219 C167.226568,8.48144048 168.383783,7.74316661 169.655273,7.23339844 C170.926764,6.72363026 172.218743,6.46875 173.53125,6.46875 Z M186.46875,18 L186.46875,7.03125 L191.25,7.03125 L191.25,18 C191.25,19.5703204 191.663082,20.8242141 192.489258,21.7617188 C193.315434,22.6992234 194.273432,23.1679688 195.363281,23.1679688 C196.031253,23.1679688 196.649411,22.977541 197.217773,22.5966797 C197.786136,22.2158184 198.246092,21.6328164 198.597656,20.8476562 C198.949221,20.0624961 199.125,19.1132868 199.125,18 L199.125,7.03125 L204.1875,7.03125 L204.1875,27 L199.96875,27 L199.96875,25.03125 C199.101558,25.9804735 198.166997,26.6953101 197.165039,27.1757812 C196.163081,27.6562524 195.152349,27.8964844 194.132812,27.8964844 C193.124995,27.8964844 192.161137,27.6709007 191.241211,27.2197266 C190.321284,26.7685524 189.498051,26.1064497 188.771484,25.2333984 C188.044918,24.3603472 187.479494,23.3085999 187.075195,22.078125 C186.670896,20.8476501 186.46875,19.4882887 186.46875,18 Z M207.84375,0.5625 L212.34375,0.5625 L212.34375,27 L207.84375,27 L207.84375,0.5625 Z M215.4375,16.875 C215.554688,15.0937411 215.903317,13.5351629 216.483398,12.1992188 C217.063479,10.8632746 217.792964,9.78223069 218.671875,8.95605469 C219.550786,8.12987868 220.520503,7.52050978 221.581055,7.12792969 C222.641607,6.7353496 223.740229,6.5390625 224.876953,6.5390625 C226.376961,6.5390625 227.789056,6.8613249 229.113281,7.50585938 C230.437507,8.15039385 231.410153,9.02343199 232.03125,10.125 L232.03125,7.03125 L236.53125,7.03125 L236.53125,27.28125 L232.03125,27.28125 L232.03125,24.75 C231.351559,25.7109423 230.384772,26.4667941 229.130859,27.0175781 C227.876947,27.5683621 226.593757,27.84375 225.28125,27.84375 C223.828118,27.84375 222.495123,27.5654325 221.282227,27.0087891 C220.06933,26.4521457 219.029301,25.6816455 218.162109,24.6972656 C217.294918,23.7128857 216.624026,22.5468817 216.149414,21.1992188 C215.674802,19.8515558 215.4375,18.4101639 215.4375,16.875 Z M226.125,23.0625 C228.269542,22.9335931 229.790035,22.3681691 230.686523,21.3662109 C231.583012,20.3642528 232.03125,18.9609465 232.03125,17.15625 C232.03125,15.9960879 231.758792,14.9619186 231.213867,14.0537109 C230.668943,13.1455033 229.945317,12.4511743 229.042969,11.9707031 C228.14062,11.490232 227.167974,11.25 226.125,11.25 C225.082026,11.25 224.10938,11.490232 223.207031,11.9707031 C222.304683,12.4511743 221.581057,13.1455033 221.036133,14.0537109 C220.491208,14.9619186 220.21875,15.9960879 220.21875,17.15625 C220.21875,18.3984437 220.502927,19.4648393 221.071289,20.3554688 C221.639651,21.2460982 222.377925,21.9199196 223.286133,22.3769531 C224.19434,22.8339867 225.14062,23.0625 226.125,23.0625 Z M240.46875,7.03125 L240.46875,0.5625 L245.25,0.5625 L245.25,7.03125 L248.0625,7.03125 L248.0625,11.25 L245.25,11.25 L245.25,27 L240.46875,27 L240.46875,11.25 L237.9375,11.25 L237.9375,7.03125 L240.46875,7.03125 Z M252.5625,10.125 C254.964856,7.83983232 257.572252,6.69726562 260.384766,6.69726562 C261.275395,6.69726562 262.124996,6.80859264 262.933594,7.03125 C263.742192,7.25390736 264.492184,7.5527325 265.183594,7.92773438 C265.875003,8.30273625 266.542966,8.77441122 267.1875,9.34277344 C267.832034,9.91113565 268.394529,10.5468715 268.875,11.25 C270.187507,13.0312589 270.84375,14.9941299 270.84375,17.1386719 C270.84375,18.3691468 270.626955,19.5878846 270.193359,20.7949219 C269.759763,22.0019592 269.132817,23.1328072 268.3125,24.1875 C267.808591,24.8554721 267.164066,25.4267554 266.378906,25.9013672 C265.593746,26.3759789 264.717778,26.7304676 263.750977,26.9648438 C262.784175,27.1992199 261.802739,27.3164062 260.806641,27.3164062 C259.751948,27.3164062 258.70899,27.1904309 257.677734,26.9384766 C256.646479,26.6865222 255.685551,26.2998073 254.794922,25.7783203 C253.904292,25.2568333 253.160159,24.6328161 252.5625,23.90625 C250.769522,21.7148328 249.873047,19.3769655 249.873047,16.8925781 C249.873047,14.51366 250.769522,12.2578232 252.5625,10.125 Z M256.21875,13.21875 C255.23437,14.3789121 254.742188,15.7206955 254.742188,17.2441406 C254.742188,18.6972729 255.23437,19.9804632 256.21875,21.09375 C257.355474,22.4531318 258.738273,23.1328125 260.367188,23.1328125 C261.234379,23.1328125 262.069332,22.9306661 262.87207,22.5263672 C263.674809,22.1220683 264.269529,21.644534 264.65625,21.09375 C265.500004,19.9687444 265.921875,18.6679761 265.921875,17.1914062 C265.921875,16.4882777 265.813478,15.817386 265.59668,15.1787109 C265.379882,14.5400359 265.066408,13.9804712 264.65625,13.5 C263.437494,12.1406182 261.943368,11.4609375 260.173828,11.4609375 C258.568351,11.4609375 257.250005,12.0468691 256.21875,13.21875 Z M273.09375,27 L273.09375,7.3125 L277.59375,7.3125 L277.59375,8.71875 C278.250003,8.06249672 278.920895,7.55566585 279.606445,7.19824219 C280.291996,6.84081853 281.214838,6.59765689 282.375,6.46875 L282.375,11.25 C281.074212,11.496095 280.1543,11.7333973 279.615234,11.9619141 C279.076169,12.1904308 278.651369,12.6328092 278.34082,13.2890625 C278.030272,13.9453158 277.875,14.9531182 277.875,16.3125 L277.875,27 L273.09375,27 Z" id="JoozeCalculator" fill="url(#linearGradient-1)"></path>
    </g>
</svg>