<?xml version="1.0" encoding="UTF-8"?>
<svg width="256px" height="265px" viewBox="0 0 256 265" version="1.1" xmlns="http://www.w3.org/2000/svg" xmlns:xlink="http://www.w3.org/1999/xlink">
    <!-- Generator: Sketch 49 (51002) - http://www.bohemiancoding.com/sketch -->
    <title>Group 3</title>
    <desc>Created with Sketch.</desc>
    <defs>
        <linearGradient x1="38.503125%" y1="0%" x2="60.2125%" y2="100%" id="linearGradient-1">
            <stop stop-color="#6BB6C4" offset="0%"></stop>
            <stop stop-color="#7C98C6" offset="100%"></stop>
        </linearGradient>
        <linearGradient x1="50%" y1="-180.790441%" x2="68.0847168%" y2="137.683824%" id="linearGradient-2">
            <stop stop-color="#6BB6C4" offset="0%"></stop>
            <stop stop-color="#7D97C6" offset="100%"></stop>
        </linearGradient>
        <linearGradient x1="50%" y1="-95.4550059%" x2="50%" y2="74.013169%" id="linearGradient-3">
            <stop stop-color="#6BB6C4" offset="0%"></stop>
            <stop stop-color="#7F94C6" offset="100%"></stop>
        </linearGradient>
    </defs>
    <g id="Page-1" stroke="none" stroke-width="1" fill="none" fill-rule="evenodd">
        <g id="Group-3" transform="translate(3.000000, 7.000000)">
            <path d="M200.320533,189.566037 C192.685831,219.556127 172.118545,245.320928 130,253 C80.1689141,262.085226 57.0178522,237.972012 47.27524,207.453916 C43.7231583,209.699964 39.513399,211 35,211 C26.7347392,211 22.4758123,205.062913 20.5089122,197.41564 C18.4915683,199.49273 15.4290133,200.623047 12,200.623047 C5.92486775,200.623047 1,197.075132 1,191 C1,189.000241 1.79551791,185.524254 3.07951178,181.760585 C1.13908466,178.998266 0,175.632157 0,172 C0,167.172734 3.56789995,163.439096 8.31091868,160.950596 C6.34327552,157.895357 5.16796875,154.353053 5.16796875,150.793945 C5.16796875,143.413093 10.2225139,137.975386 16.9160478,135.81743 C18.5487756,131.59581 24.0058869,127.615234 28.1845703,127.615234 C31.6311046,127.615234 33.5748403,128.775955 34.4427717,131.144789 C38.9753476,136.234187 41,145.815905 41,152.5 C41,157.318933 39.0522214,161.682939 35.9009952,164.847685 C37.6837731,164.917475 39.4145157,165.193431 41.0707812,165.652144 C40.8833427,154.034574 41.7602109,143.178524 43,134.5 C47,106.5 62.5,79.1666667 89.5,52.5 C97.1666667,42.5 102,33.5 104,25.5 C106,17.5 105.166667,9 101.5,0 C144.166667,29.6666667 173.166667,59.8333333 188.5,90.5 C196.915097,107.330195 203.456104,131.389025 203.935469,155.942128 C206.975273,153.560267 210.618025,152.029648 214.566208,151.684646 C211.141417,148.490202 209,143.937561 209,138.884766 C209,132.200671 211.024652,122.618952 215.557228,117.529555 C216.42516,115.160721 218.368895,114 221.81543,114 C225.994113,114 231.451224,117.980576 233.083952,122.202195 C239.777486,124.360151 244.832031,129.797858 244.832031,137.178711 C244.832031,140.737819 243.656724,144.280123 241.689081,147.335362 C246.4321,149.823862 250,153.557499 250,158.384766 C250,162.016922 248.860915,165.383031 246.920488,168.145351 C248.204482,171.90902 249,175.385007 249,177.384766 C249,183.459898 244.075132,187.007812 238,187.007812 C234.635941,187.007812 231.624588,185.919913 229.606849,183.917422 C227.796978,191.498873 223.878221,197.384766 216.273328,197.384766 C209.908602,197.384766 204.200114,194.357342 200.320533,189.566037 Z" id="Combined-Shape" stroke="url(#linearGradient-1)" stroke-width="5"></path>
            <path d="M78.5,115.5 L109.5,131.5" id="Line-2" stroke="url(#linearGradient-2)" stroke-width="4" stroke-linecap="square"></path>
            <path d="M102.5,141 C106.642136,141 110.399231,137.642136 110.399231,133.5 C110.399231,129.357864 104.835007,126.539551 100.692871,126.539551 C96.5507355,126.539551 95,129.357864 95,133.5 C95,137.642136 98.3578644,141 102.5,141 Z" id="Oval-15" fill="url(#linearGradient-3)"></path>
            <path d="M167.5,115.5 L136.5,131.5 L167.5,115.5 Z" id="Line-2" stroke="url(#linearGradient-2)" stroke-width="4" stroke-linecap="square"></path>
            <path d="M143.5,127 C147.642136,127 151.399231,130.357864 151.399231,134.5 C151.399231,138.642136 145.835007,141.460449 141.692871,141.460449 C137.550735,141.460449 135.663574,138.37236 135.663574,134.230225 C135.663574,130.088089 139.357864,127 143.5,127 Z" id="Oval-15" fill="url(#linearGradient-3)"></path>
            <path d="M40.6879883,161.390869 C49.1147461,169.796956 53.71875,173.5 54.5,172.5 C54.7153635,172.224335 69.3925781,157.5 71,157.5 C76.6014951,157.5 90,201.406059 90,197.5 C90,196.865234 105.710449,167.207611 105.710449,171.123779 C105.710449,172.5 126.22767,206.334269 127.5,203 C129.026367,199 142.849609,177.904463 145.5,174 C147.492473,171.064758 159,193.497812 159,199 C159,200.878906 178.367188,179.600586 186,155.5 C187.194945,151.726965 192.5,165.632991 192.5,167.5 C192.5,168.29362 196.302327,163.31958 203.906982,152.577881" id="Path-4" stroke="url(#linearGradient-2)" stroke-width="4"></path>
            <path d="M48.2109375,206.658447 L63.5478516,194.589844 C76.7932943,212.513021 85.2773437,222.316406 89,224 C90.1194543,224.50628 98.9931641,210.240234 100.5,213 C102.757376,217.134378 121.842773,238.626953 123.5,236.5 C124.951656,234.636885 141.5,218.192383 141.5,211.5 C141.5,207.680976 158.439453,221.220703 159.5,225 C160.394948,228.189178 176.5,213 193,189.5 C193.839421,188.304462 195.779525,189.074074 198.820312,191.808838" id="Path-5" stroke="url(#linearGradient-2)" stroke-width="4"></path>
        </g>
    </g>
</svg>